<?xml version="1.0" encoding="UTF-8" standalone="no"?>
<!-- Created with Inkscape (http://www.inkscape.org/) -->

<svg
   xmlns:dc="http://purl.org/dc/elements/1.1/"
   xmlns:cc="http://creativecommons.org/ns#"
   xmlns:rdf="http://www.w3.org/1999/02/22-rdf-syntax-ns#"
   xmlns:svg="http://www.w3.org/2000/svg"
   xmlns="http://www.w3.org/2000/svg"
   xmlns:sodipodi="http://sodipodi.sourceforge.net/DTD/sodipodi-0.dtd"
   xmlns:inkscape="http://www.inkscape.org/namespaces/inkscape"
   version="1.1"
   width="70.125"
   height="70.09375"
   id="svg3001"
   inkscape:version="0.92.4 (33fec40, 2019-01-16)"
   sodipodi:docname="outer.svg">
  <sodipodi:namedview
     pagecolor="#ffffff"
     bordercolor="#666666"
     borderopacity="1"
     objecttolerance="10"
     gridtolerance="10"
     guidetolerance="10"
     inkscape:pageopacity="0"
     inkscape:pageshadow="2"
     inkscape:window-width="1366"
     inkscape:window-height="697"
     id="namedview29"
     showgrid="true"
     inkscape:zoom="4"
     inkscape:cx="-26.655937"
     inkscape:cy="46.306727"
     inkscape:window-x="1920"
     inkscape:window-y="34"
     inkscape:window-maximized="1"
     inkscape:current-layer="svg3001"
     inkscape:object-paths="true"
     inkscape:snap-nodes="true"
     showguides="true"
     inkscape:guide-bbox="true">
    <inkscape:grid
       type="xygrid"
       id="grid2984" />
  </sodipodi:namedview>
  <defs
     id="defs3003">
    <inkscape:path-effect
       effect="spiro"
       id="path-effect3760"
       is_visible="true" />
    <inkscape:path-effect
       effect="spiro"
       id="path-effect2988"
       is_visible="true" />
    <inkscape:path-effect
       effect="spiro"
       id="path-effect3760-9"
       is_visible="true" />
    <inkscape:path-effect
       effect="spiro"
       id="path-effect3760-3"
       is_visible="true" />
    <inkscape:path-effect
       effect="spiro"
       id="path-effect3760-9-4"
       is_visible="true" />
    <inkscape:path-effect
       effect="spiro"
       id="path-effect3760-9-4-2"
       is_visible="true" />
  </defs>
  <metadata
     id="metadata3006">
    <rdf:RDF>
      <cc:Work
         rdf:about="">
        <dc:format>image/svg+xml</dc:format>
        <dc:type
           rdf:resource="http://purl.org/dc/dcmitype/StillImage" />
        <dc:title />
      </cc:Work>
    </rdf:RDF>
  </metadata>
  <g
     id="g75"
     transform="matrix(1.2863648,0,0,1.2863648,1.7327833,1.8612127)">
    <g
       id="g19">
	<path
   id="path17"
   d="M 51.911,16.242 C 51.152,7.888 45.239,1.827 37.839,1.827 32.909,1.827 28.395,4.48 25.855,8.732 23.338,4.425 19.009,1.826 14.158,1.826 6.759,1.826 0.845,7.887 0.087,16.241 c -0.06,0.369 -0.306,2.311 0.442,5.478 1.078,4.568 3.568,8.723 7.199,12.013 L 25.843,50.171 44.269,33.733 c 3.631,-3.291 6.121,-7.445 7.199,-12.014 0.748,-3.166 0.502,-5.108 0.443,-5.477 z m -2.39,5.019 c -0.984,4.172 -3.265,7.973 -6.59,10.985 L 25.855,47.481 9.072,32.25 C 5.741,29.232 3.461,25.432 2.476,21.26 1.768,18.263 2.059,16.57 2.06,16.559 L 2.075,16.458 C 2.725,9.139 7.806,3.826 14.158,3.826 c 4.687,0 8.813,2.88 10.771,7.515 l 0.921,2.183 0.921,-2.183 c 1.927,-4.564 6.271,-7.514 11.069,-7.514 6.351,0 11.433,5.313 12.096,12.727 0.002,0.016 0.293,1.71 -0.415,4.707 z"
   inkscape:connector-curvature="0" />

</g>
    <g
       id="g21">
</g>
    <g
       id="g23">
</g>
    <g
       id="g25">
</g>
    <g
       id="g27">
</g>
    <g
       id="g29">
</g>
    <g
       id="g31">
</g>
    <g
       id="g33">
</g>
    <g
       id="g35">
</g>
    <g
       id="g37">
</g>
    <g
       id="g39">
</g>
    <g
       id="g41">
</g>
    <g
       id="g43">
</g>
    <g
       id="g45">
</g>
    <g
       id="g47">
</g>
    <g
       id="g49">
</g>
  </g>
</svg>
